<?xml version="1.0" encoding="utf-8"?>
<!-- Generator: Adobe Illustrator 23.0.3, SVG Export Plug-In . SVG Version: 6.00 Build 0)  -->
<svg version="1.1" id="Слой_1" xmlns="http://www.w3.org/2000/svg" xmlns:xlink="http://www.w3.org/1999/xlink" x="0px" y="0px"
	 viewBox="0 0 1184.5 210.1" style="enable-background:new 0 0 1184.5 210.1;" xml:space="preserve">
<style type="text/css">
	.st0{fill:#271301;}
	.st1{fill:#FDAB60;}
	.st2{fill:#D44E20;}
	.st3{fill:#BB320E;}
	.st4{fill:#CD6431;}
	.st5{fill:#FFF2BF;}
</style>
<g>
	<g>
		<g>
			<path class="st0" d="M956.8,178.9l3.5-65.7c0.1-2.3-3-3.2-4.1-1.1l-7,13.7c-0.4,0.7-1.1,1.2-1.9,1.2h-5.1c-0.8,0-1.6-0.5-1.9-1.2
				l-8.4-17.3c-1-2-4.1-1.4-4.1,0.9l-0.3,87.1c0,1.2-1,2.1-2.1,2.1h-39c-1.2,0-2.2-1-2.1-2.2l0.5-101.1l0.5-88.1
				c0-1.1,0.9-2.1,2-2.1l26.9-1.6l6.4-0.4c0.9-0.1,1.8,0.5,2.1,1.3L943.1,54c0.8,1.9,3.5,1.7,4-0.2l13.2-47.1c0.2-0.9,1-1.5,1.9-1.6
				l25.1-1.8l10-0.7c1.2-0.1,2.3,0.9,2.3,2.1l-0.2,47.6l-0.6,142.9c0,1.2-0.9,2.1-2.1,2.1l-38.7,1.3c-1.3,0-2.3-1-2.2-2.3
				L956.8,178.9z"/>
			<path class="st0" d="M965.1,187.2l3.5-65.7c0.1-2.3-3-3.2-4.1-1.1l-7,13.7c-0.4,0.7-1.1,1.2-1.9,1.2h-5.1c-0.8,0-1.6-0.5-1.9-1.2
				l-8.4-17.3c-1-2-4.1-1.4-4.1,0.9l-0.3,87.1c0,1.2-1,2.1-2.1,2.1h-39c-1.2,0-2.2-1-2.1-2.2l0.5-101.1l0.5-88.1
				c0-1.1,0.9-2.1,2-2.1l26.9-1.6l6.4-0.4c0.9-0.1,1.8,0.5,2.1,1.3l20.3,49.6c0.8,1.9,3.5,1.7,4-0.2L968.7,15c0.2-0.9,1-1.5,1.9-1.6
				l25.1-1.8l10-0.7c1.2-0.1,2.3,0.9,2.3,2.1l-0.2,47.6l-0.6,142.9c0,1.2-0.9,2.1-2.1,2.1l-38.7,1.3c-1.3,0-2.3-1-2.2-2.3
				L965.1,187.2z"/>
		</g>
		<g>
			<path class="st1" d="M987.7,7.5l-1.5,49.4l-59.7,30.5l-2.8-5.8l0,7.2l-27.7,14.2c0,0-2.5,83.1-2.6,83.1l-4.9,0.5l0.5-91.3v0
				l13.3-67.7l12.1-20l4.9-0.3l26.7,65.4l17.9-63.6L987.7,7.5z"/>
			<path class="st2" d="M923.8,88.8l-0.4,94.2l-29.9,3.1c0.1,0,2.6-83.1,2.6-83.1L923.8,88.8z"/>
			<polygon class="st3" points="923.4,183 923.4,194.3 888.6,194.3 888.6,186.6 893.5,186.1 			"/>
			<polygon class="st4" points="995.5,6.9 995.3,52.2 986.2,56.8 987.7,7.5 			"/>
			<polygon class="st2" points="995.3,52.2 994.9,132.1 979,177.2 961,179.1 966.2,83.1 946.1,122.7 943.6,122.7 926.6,87.3 
				986.2,56.8 			"/>
			<polygon class="st3" points="994.9,132.1 994.6,193.1 960.2,194.3 961,179.1 979,177.2 			"/>
			<polygon class="st5" points="914.5,7.6 902.4,27.6 889.1,95.3 889.6,9.1 			"/>
		</g>
	</g>
	<g>
		<path class="st0" d="M686.4,192.9l4.8-118.2l2.6-63.6c0.1-1.8,1.4-3.2,3.2-3.4l17.4-1.9l15.5-1.7c2.2-0.2,4.1,1.5,4,3.7l-2.6,65.9
			l-3.6,90.4c-0.1,2.3,1.9,4.1,4.2,3.7L755,164c1.7-0.3,3-1.8,3-3.6l-1.3-149.1c0-1.8,1.3-3.4,3.1-3.6l34.6-4.4c2.1-0.3,4,1.4,4,3.6
			v188c0,2-1.6,3.6-3.5,3.6l-105,2.1c-2.1,0-3.7-1.7-3.7-3.7L686.4,192.9z"/>
		<path class="st0" d="M695.5,202.4l4.8-118.2l2.6-63.6c0.1-1.8,1.4-3.2,3.2-3.4l17.4-1.9l15.5-1.7c2.2-0.2,4.1,1.5,4,3.7l-2.6,65.9
			l-3.6,90.4c-0.1,2.3,1.9,4.1,4.2,3.7l23.2-3.8c1.7-0.3,3-1.8,3-3.6l-1.3-149.1c0-1.8,1.3-3.4,3.1-3.6l34.6-4.4
			c2.1-0.3,4,1.4,4,3.6v188c0,2-1.6,3.6-3.5,3.6l-105,2.1c-2.1,0-3.7-1.7-3.7-3.7L695.5,202.4z"/>
		<g>
			<polygon class="st3" points="794.2,131.6 794.2,194.3 690.5,196.4 690.7,193 698.7,190.9 780.1,169 			"/>
			<polygon class="st2" points="794.2,37 794.2,131.6 780.1,169 698.7,190.9 703,86.6 726.9,73.6 723,173.6 762.3,167.1 761.3,54.9 
				785.7,41.7 			"/>
			<polygon class="st1" points="729.5,8.5 726.9,73.6 703,86.6 698.7,190.9 690.7,193 695.4,74.9 695.4,74.9 706.4,29.1 714.8,10 
							"/>
			<polygon class="st5" points="714.8,10 706.4,29.1 695.4,74.9 698,11.8 			"/>
			<polygon class="st1" points="786.4,8.6 785.7,41.7 761.3,54.9 760.9,11.9 			"/>
			<polygon class="st4" points="794.2,7.6 794.2,37 785.7,41.7 786.4,8.6 			"/>
		</g>
	</g>
	<g>
		<path class="st0" d="M1086.2,4c0-2.1,1.8-3.9,3.9-3.8l34.8,1.1l46.5,1.5c2.3,0.1,4,2.2,3.6,4.4l-5.2,31.3
			c-0.3,1.9-1.9,3.2-3.8,3.2l-37.4-0.9c-0.9,0-1.7,0.7-1.7,1.7v38.7c0,0.6,0.5,1.1,1.1,1l37.2-2.1c2.2-0.1,4.1,1.7,4,4l-1.2,28.6
			c-0.1,1.7-1.3,3.2-3,3.5l-37,8.3c-0.6,0.1-1.1,0.7-1.1,1.3v31.5c0,0.8,0.7,1.5,1.5,1.3l37.3-5c2.4-0.3,4.5,1.6,4.3,4l-2.1,32.8
			c-0.1,1.9-1.7,3.5-3.6,3.6l-74.2,2.9c-2.2,0.1-4-1.6-4-3.8V4z"/>
		<path class="st0" d="M1095.6,13.3c0-2.1,1.8-3.9,3.9-3.8l34.8,1.1l46.5,1.5c2.3,0.1,4,2.2,3.6,4.4l-5.2,31.3
			c-0.3,1.9-1.9,3.2-3.8,3.2l-37.4-0.9c-0.9,0-1.7,0.7-1.7,1.7v38.7c0,0.6,0.5,1.1,1.1,1l37.2-2.1c2.2-0.1,4.1,1.7,4,4l-1.2,28.6
			c-0.1,1.7-1.3,3.2-3,3.5l-37,8.3c-0.6,0.1-1.1,0.7-1.1,1.3v31.5c0,0.8,0.7,1.5,1.5,1.3l37.3-5c2.4-0.3,4.5,1.6,4.3,4l-2.1,32.8
			c-0.1,1.9-1.7,3.5-3.6,3.6l-74.2,2.9c-2.2,0.1-4-1.6-4-3.8V13.3z"/>
		<g>
			<polygon class="st5" points="1124.8,5.5 1108,20.7 1097.2,108.9 1097.2,108.9 1090.4,112.9 1090.4,4.4 			"/>
			<polygon class="st1" points="1166.9,6.8 1148.6,37 1148.6,37 1122.7,36.4 1122.7,86.8 1135.8,86 1097.2,108.9 1108,20.7 
				1124.8,5.5 			"/>
			<polygon class="st2" points="1165.9,157.9 1165.3,166 1098.6,184.3 1097.2,108.9 1097.2,108.9 1135.8,86 1165,84.4 1163.8,112.1 
				1122.7,121.3 1122.7,163.7 			"/>
			<polygon class="st1" points="1098.6,184.3 1090.4,186.6 1090.4,112.9 1097.2,108.9 			"/>
			<polygon class="st2" points="1165.3,166 1163.8,189.7 1090.4,192.6 1090.4,186.6 1098.6,184.3 			"/>
			<polygon class="st4" points="1170.8,7 1165.8,37.4 1148.6,37 1166.9,6.8 			"/>
		</g>
	</g>
	<g>
		<path class="st0" d="M526.5,197.3c-2.5,0-4.5-2.1-4.4-4.6l0.2-4.5l5.1-99.5l0,0l4.1-81.3c0.1-2.3,2.1-4.2,4.4-4.2h34.4
			c2.6,0,4.6,2.2,4.4,4.7l-4.4,57.7l-7.1,93.1c-0.2,2.6,1.8,4.7,4.4,4.7h33.9c2,0,3.8,1.4,4.3,3.4l6,25c0.7,2.8-1.4,5.4-4.3,5.4
			H526.5z"/>
		<path class="st0" d="M535.9,206.6c-2.5,0-4.5-2.1-4.4-4.6l0.2-4.5l5.1-99.5l0,0l4.1-81.3c0.1-2.3,2.1-4.2,4.4-4.2h34.4
			c2.6,0,4.6,2.2,4.4,4.7L579.7,75l-7.1,93.1c-0.2,2.6,1.8,4.7,4.4,4.7h33.9c2,0,3.8,1.4,4.3,3.4l6,25c0.7,2.8-1.4,5.4-4.3,5.4
			H535.9z"/>
		<g>
			<polygon class="st3" points="607.8,193 526.4,193 526.6,188.4 535.8,186.5 602.7,172.1 			"/>
			<polygon class="st1" points="535.8,186.5 526.6,188.4 531.6,90.5 531.6,90.5 			"/>
			<polygon class="st2" points="602.7,172.1 535.8,186.5 531.6,90.5 555,73.4 555,73.4 566.1,65.3 558.3,167.8 601.7,167.8 			"/>
			<polygon class="st4" points="570.5,7.4 566.1,65.3 555,73.4 566.4,7.4 			"/>
			<polygon class="st1" points="566.4,7.4 555,73.4 555,73.4 531.6,90.5 544.2,31.3 			"/>
			<polygon class="st5" points="566.4,7.4 544.2,31.3 531.6,90.5 535.8,7.4 			"/>
		</g>
	</g>
	<g>
		<path class="st0" d="M363.5,197.3c-2.5,0-4.5-2.1-4.4-4.6l0.2-4.5l5.1-99.5l0,0l4.1-81.3c0.1-2.3,2.1-4.2,4.4-4.2h34.4
			c2.6,0,4.6,2.2,4.4,4.7l-4.4,57.7l-7.1,93.1c-0.2,2.6,1.8,4.7,4.4,4.7h33.9c2,0,3.8,1.4,4.3,3.4l6,25c0.7,2.8-1.4,5.4-4.3,5.4
			H363.5z"/>
		<path class="st0" d="M372.9,206.6c-2.5,0-4.5-2.1-4.4-4.6l0.2-4.5l5.1-99.5l0,0l4.1-81.3c0.1-2.3,2.1-4.2,4.4-4.2h34.4
			c2.6,0,4.6,2.2,4.4,4.7L416.7,75l-7.1,93.1c-0.2,2.6,1.8,4.7,4.4,4.7h33.9c2,0,3.8,1.4,4.3,3.4l6,25c0.7,2.8-1.4,5.4-4.3,5.4
			H372.9z"/>
		<g>
			<polygon class="st3" points="444.8,193 363.4,193 363.6,188.4 372.8,186.5 439.7,172.1 			"/>
			<polygon class="st1" points="372.8,186.5 363.6,188.4 368.6,90.5 368.6,90.5 			"/>
			<polygon class="st2" points="439.7,172.1 372.8,186.5 368.6,90.5 392,73.4 392,73.4 403.1,65.3 395.3,167.8 438.7,167.8 			"/>
			<polygon class="st4" points="407.5,7.4 403.1,65.3 392,73.4 403.4,7.4 			"/>
			<polygon class="st1" points="403.4,7.4 392,73.4 392,73.4 368.6,90.5 381.2,31.3 			"/>
			<polygon class="st5" points="403.4,7.4 381.2,31.3 368.6,90.5 372.8,7.4 			"/>
		</g>
	</g>
	<g>
		<path class="st0" d="M179.5,192l0.2-185c0-1.4,1.1-2.5,2.4-2.5l33.7-1.1l56.8-1.8c1.4,0,2.6,1.1,2.6,2.5l-1.1,92.7l0,0l-1.2,97.9
			c0,1.3-1.1,2.4-2.4,2.5l-88.5,4.3c-1.4,0.1-2.6-1.1-2.6-2.5L179.5,192z M238.5,169.1V35.7c0-1.3-1-2.4-2.3-2.5l-16.6-1.1
			c-1.4-0.1-2.7,1.1-2.7,2.5V166c0,1.2,0.9,2.2,2.1,2.5l16.6,3.1C237,171.8,238.5,170.7,238.5,169.1z"/>
		<path class="st0" d="M186.5,199l0.2-185c0-1.4,1.1-2.5,2.4-2.5l33.7-1.1l56.8-1.8c1.4,0,2.6,1.1,2.6,2.5l-1.1,92.7l0,0l-1.2,97.9
			c0,1.3-1.1,2.4-2.4,2.5l-88.5,4.3c-1.4,0.1-2.6-1.1-2.6-2.5L186.5,199z M245.5,176.1V42.7c0-1.3-1-2.4-2.3-2.5l-16.6-1.1
			c-1.4-0.1-2.7,1.1-2.7,2.5v131.4c0,1.2,0.9,2.2,2.1,2.5l16.6,3.1C244.1,178.9,245.5,177.7,245.5,176.1z"/>
		<g>
			<polygon class="st3" points="269.9,95.8 268.7,193 183.7,197.1 183.7,192 196.1,190.4 251.5,183.3 			"/>
			<path class="st1" d="M196.1,190.4l-12.4,1.6l0.1-99l7.2-3.7C191.1,89.3,195.5,175.7,196.1,190.4z"/>
			<path class="st2" d="M270.5,49.2l-0.6,46.6l0,0l-18.5,87.4l-55.3,7.1c-0.7-14.7-5.1-101.1-5.1-101.1l21.5-10.9v93.2l30.1,5.6
				v-114l18.5-9.4L270.5,49.2z"/>
			<polygon class="st1" points="264.3,6.1 261.2,53.9 242.7,63.2 242.7,29.3 212.6,27.3 212.6,78.4 191.1,89.3 205.2,20.5 216,7.7 
							"/>
			<polygon class="st5" points="216,7.7 205.2,20.5 191.1,89.3 183.9,92.9 184,8.7 			"/>
			<polygon class="st4" points="271,5.9 270.5,49.2 261.2,53.9 264.3,6.1 			"/>
		</g>
	</g>
	<g>
		<path class="st0" d="M6.9,7.7C7,6.3,8,5.2,9.4,5.2L47,2.8l29.1-1.8L90.7,0c1.6-0.1,3,1.3,2.8,2.9l-5.3,56.8
			c-0.1,1.6-1.6,2.7-3.2,2.3l-7.1-1.5L56,56c-1.2-0.3-2.1-1.3-2.1-2.6V41.5c0-0.8-0.7-1.3-1.5-1.1l-7.1,2.2c-0.5,0.1-0.8,0.5-0.8,1
			l-7.6,120.3c0,0.6,0.5,1.1,1.1,1.1l15.8-0.9c0.5,0,0.9-0.4,1-0.9l5.8-39.7c0.1-0.6-0.6-1.1-1.1-0.8l-11.4,6.2
			c-1.8,1-4-0.4-3.9-2.4l0.5-14.9L45.5,90c0-1.1,0.7-2,1.7-2.4L89,71.7c1.7-0.7,3.6,0.6,3.6,2.5l0.7,117.8c0,1.4-1.1,2.6-2.5,2.7
			l-88.1,4.2c-1.5,0.1-2.8-1.2-2.8-2.7L6.9,7.7z"/>
		<path class="st0" d="M15.8,16.6c0-1.4,1.1-2.5,2.5-2.5l37.6-2.4L85,9.9l14.6-0.9c1.6-0.1,3,1.3,2.8,2.9l-5.3,56.8
			c-0.1,1.6-1.6,2.7-3.2,2.3l-7.1-1.5l-21.9-4.5c-1.2-0.3-2.1-1.3-2.1-2.6V50.4c0-0.8-0.7-1.3-1.5-1.1l-7.1,2.2
			c-0.5,0.1-0.8,0.5-0.8,1l-7.6,120.3c0,0.6,0.5,1.1,1.1,1.1l15.8-0.9c0.5,0,0.9-0.4,1-0.9l5.8-39.7c0.1-0.6-0.6-1.1-1.1-0.8
			L57,137.9c-1.8,1-4-0.4-3.9-2.4l0.5-14.9l0.8-21.7c0-1.1,0.7-2,1.7-2.4l41.8-15.9c1.7-0.7,3.6,0.6,3.6,2.5l0.7,117.8
			c0,1.4-1.1,2.6-2.5,2.7l-88.1,4.2c-1.5,0.1-2.8-1.2-2.8-2.7L15.8,16.6z"/>
		<g>
			<path class="st2" d="M88.8,141.6l-8.1,26.2c0,0-48.8,17.3-68.4,24.1c-0.2-2.7-2.4-60.7-2.4-60.7l25.6-12.7l-3.2,51.1l26-1.5
				l7.9-53.9l-17.7,9.7l0.4-12l31.7-15.7l7.8-3.9L88.8,141.6z"/>
			<path class="st1" d="M12.3,191.8c-4.7,1.6-7.7,2.6-8,2.6l2.3-61.7l3.3-1.7C9.9,131.2,12.1,189.2,12.3,191.8z"/>
			<polygon class="st1" points="58.1,52.1 58.1,34.2 40.5,39.6 35.5,118.5 9.9,131.2 6.6,132.8 8,95.5 22,30.8 47.3,7 76.4,5.2 
				78.8,56.4 			"/>
			<polygon class="st5" points="47.3,7 22,30.8 8,95.5 11.1,9.3 			"/>
			<polygon class="st4" points="89.1,4.4 84.1,57.5 78.8,56.4 76.4,5.2 			"/>
			<polygon class="st1" points="80.7,96.1 49,111.8 49.7,91.2 79.9,79.7 			"/>
			<polygon class="st4" points="88.5,92.3 80.7,96.1 79.9,79.7 88.4,76.5 			"/>
			<path class="st3" d="M89.1,190.4l-84.8,4.1c0.2,0,3.3-1,8-2.6c19.6-6.8,68.4-24.1,68.4-24.1l8.1-26.2L89.1,190.4z"/>
		</g>
	</g>
</g>
</svg>
