<svg width="40" height="40" viewBox="0 0 40 40" fill="none" xmlns="http://www.w3.org/2000/svg">
<path d="M3.60657 17.8118C13.7847 13.2841 20.5718 10.2992 23.9677 8.85705C33.6637 4.73938 35.6784 4.0241 36.9916 4.00023C37.2804 3.99529 37.9262 4.06837 38.3445 4.41494C38.6977 4.70757 38.7949 5.10288 38.8414 5.38032C38.8879 5.65777 38.9458 6.28981 38.8998 6.78366C38.3744 12.4204 36.1009 26.0994 34.9442 32.4127C34.4548 35.0841 33.4911 35.9798 32.5582 36.0674C30.5306 36.2579 28.991 34.6993 27.0273 33.385C23.9544 31.3284 22.2184 30.0481 19.2356 28.0412C15.7885 25.7218 18.0231 24.4471 19.9876 22.3638C20.5017 21.8186 29.4351 13.5222 29.608 12.7696C29.6296 12.6755 29.6497 12.3247 29.4455 12.1394C29.2414 11.9541 28.9401 12.0175 28.7226 12.0679C28.4144 12.1393 23.5054 15.4521 13.9957 22.0064C12.6023 22.9833 11.3402 23.4593 10.2094 23.4344C8.96278 23.4069 6.56479 22.7147 4.78214 22.1231C2.59565 21.3974 0.857864 21.0137 1.00919 19.7813C1.088 19.1394 1.9538 18.4829 3.60657 17.8118Z" fill="#FFF2BF"/>
</svg>
